<svg xmlns="http://www.w3.org/2000/svg" viewBox="44.63 168.74 431.25 85.43">
  <path fill="currentColor" stroke="none" d="M 470.87553181144455,232.67721846750385 C 470.87553181144455,232.67721846750385 471.6529691709575,232.94704091288895 459.9706919252045,228.61387943962688 C 425.41495416579846,215.79786083386784 401.71482026827124,208.0172943224061 384.78986683322967,202.0573976604099 C 364.8607680219102,195.0382557207805 353.37208964332973,190.43764803118796 341.0431363402116,187.17882685635587 C 323.9345465379265,182.65631903688825 304.3586786142422,176.8475030616257 264.565464231178,173.90660063830398 C 257.5811358650416,173.3910201169682 248.73781746535474,174.21650039036217 241.71248711750138,174.838188015725 C 215.84958509694331,177.12702004866506 188.16910061189412,184.79219321519906 162.1865116468146,192.60505457783233 C 101.77495608540386,210.76827014255488 49.63457523433294,232.67721846750382 49.63457523433294,232.67721846750382 L 54.40484042252382,246.13664962317807 C 80.77137055826768,238.84234701080254 101.04807000697485,229.97379022478606 118.51050097943289,223.85397605014492 C 163.2670775435846,208.1664201137594 186.02075378599773,199.41266734963332 213.70481236795388,194.22091837353474 C 232.88392577289903,190.62365913902676 251.44573136164087,186.31234944407893 278.0672808950068,189.04103950389646 C 297.78080581783763,191.06152833507736 321.6403775524302,197.28125386293064 352.01395243215075,206.2700581230094 C 382.34000792970426,215.24330898093746 419.85232704368707,232.49341088471525 466.08112548065776,248.83106212575774 C 468.4644020408424,249.67320394141257 467.5060165213515,249.15896839613185 468.5573327124421,244.60254433044713 L 470.87553181144455,232.67721846750385 Z"/>
</svg>